<svg width="156" height="25" viewBox="0 0 156 25" fill="none" xmlns="http://www.w3.org/2000/svg">
<path d="M0.44 16.17C0.44 15.01 0.62 13.93 0.98 12.93C1.34 11.91 1.85 11.03 2.51 10.29C3.19 9.55 4.01 8.97 4.97 8.55C5.93 8.13 7.01 7.92 8.21 7.92C9.69 7.92 11.09 8.19 12.41 8.73L11.63 11.7C11.21 11.52 10.73 11.37 10.19 11.25C9.67 11.13 9.11 11.07 8.51 11.07C7.09 11.07 6.01 11.52 5.27 12.42C4.53 13.3 4.16 14.55 4.16 16.17C4.16 17.73 4.51 18.97 5.21 19.89C5.91 20.79 7.09 21.24 8.75 21.24C9.37 21.24 9.98 21.18 10.58 21.06C11.18 20.94 11.7 20.79 12.14 20.61L12.65 23.61C12.25 23.81 11.64 23.99 10.82 24.15C10.02 24.31 9.19 24.39 8.33 24.39C6.99 24.39 5.82 24.19 4.82 23.79C3.84 23.37 3.02 22.8 2.36 22.08C1.72 21.34 1.24 20.47 0.92 19.47C0.6 18.45 0.44 17.35 0.44 16.17ZM15.4604 24V1.32L19.0904 0.719999V8.49C19.4904 8.35 19.9504 8.23 20.4704 8.13C21.0104 8.03 21.5404 7.98 22.0604 7.98C23.3204 7.98 24.3604 8.16 25.1804 8.52C26.0204 8.86 26.6904 9.35 27.1904 9.99C27.6904 10.61 28.0404 11.36 28.2404 12.24C28.4604 13.12 28.5704 14.1 28.5704 15.18V24H24.9404V15.75C24.9404 14.91 24.8804 14.2 24.7604 13.62C24.6604 13.02 24.4804 12.54 24.2204 12.18C23.9804 11.8 23.6504 11.53 23.2304 11.37C22.8104 11.19 22.2904 11.1 21.6704 11.1C21.1904 11.1 20.7004 11.15 20.2004 11.25C19.7004 11.35 19.3304 11.44 19.0904 11.52V24H15.4604ZM45.7913 23.52C45.0913 23.7 44.1813 23.88 43.0613 24.06C41.9413 24.26 40.7113 24.36 39.3713 24.36C38.1113 24.36 37.0513 24.18 36.1913 23.82C35.3513 23.46 34.6713 22.96 34.1513 22.32C33.6513 21.68 33.2913 20.92 33.0713 20.04C32.8513 19.14 32.7413 18.16 32.7413 17.1V8.31H36.3713V16.53C36.3713 18.21 36.6113 19.41 37.0913 20.13C37.5913 20.85 38.4513 21.21 39.6713 21.21C40.1113 21.21 40.5713 21.19 41.0513 21.15C41.5513 21.11 41.9213 21.06 42.1613 21V8.31H45.7913V23.52ZM61.3916 10.86C60.9916 11.28 60.4616 11.87 59.8016 12.63C59.1616 13.39 58.4716 14.24 57.7316 15.18C56.9916 16.1 56.2416 17.07 55.4816 18.09C54.7416 19.09 54.0716 20.05 53.4716 20.97H61.5716V24H49.0916V21.75C49.5316 20.95 50.0816 20.08 50.7416 19.14C51.4016 18.2 52.0816 17.26 52.7816 16.32C53.4816 15.36 54.1716 14.45 54.8516 13.59C55.5516 12.73 56.1716 11.98 56.7116 11.34H49.4816V8.31H61.3916V10.86ZM73.8828 11.58C73.5828 11.48 73.1628 11.38 72.6228 11.28C72.1028 11.16 71.4928 11.1 70.7928 11.1C70.3928 11.1 69.9628 11.14 69.5028 11.22C69.0628 11.3 68.7528 11.37 68.5728 11.43V24H64.9428V9.06C65.6428 8.8 66.5128 8.56 67.5528 8.34C68.6128 8.1 69.7828 7.98 71.0628 7.98C71.3028 7.98 71.5828 8 71.9028 8.04C72.2228 8.06 72.5428 8.1 72.8628 8.16C73.1828 8.2 73.4928 8.26 73.7928 8.34C74.0928 8.4 74.3328 8.46 74.5128 8.52L73.8828 11.58ZM76.1724 16.23C76.1724 14.85 76.3724 13.64 76.7724 12.6C77.1924 11.56 77.7424 10.7 78.4224 10.02C79.1024 9.32 79.8824 8.8 80.7624 8.46C81.6424 8.1 82.5424 7.92 83.4624 7.92C85.6224 7.92 87.3024 8.59 88.5024 9.93C89.7224 11.27 90.3324 13.27 90.3324 15.93C90.3324 16.13 90.3224 16.36 90.3024 16.62C90.3024 16.86 90.2924 17.08 90.2724 17.28H79.9224C80.0224 18.54 80.4624 19.52 81.2424 20.22C82.0424 20.9 83.1924 21.24 84.6924 21.24C85.5724 21.24 86.3724 21.16 87.0924 21C87.8324 20.84 88.4124 20.67 88.8324 20.49L89.3124 23.46C89.1124 23.56 88.8324 23.67 88.4724 23.79C88.1324 23.89 87.7324 23.98 87.2724 24.06C86.8324 24.16 86.3524 24.24 85.8324 24.3C85.3124 24.36 84.7824 24.39 84.2424 24.39C82.8624 24.39 81.6624 24.19 80.6424 23.79C79.6224 23.37 78.7824 22.8 78.1224 22.08C77.4624 21.34 76.9724 20.48 76.6524 19.5C76.3324 18.5 76.1724 17.41 76.1724 16.23ZM86.7024 14.61C86.7024 14.11 86.6324 13.64 86.4924 13.2C86.3524 12.74 86.1424 12.35 85.8624 12.03C85.6024 11.69 85.2724 11.43 84.8724 11.25C84.4924 11.05 84.0324 10.95 83.4924 10.95C82.9324 10.95 82.4424 11.06 82.0224 11.28C81.6024 11.48 81.2424 11.75 80.9424 12.09C80.6624 12.43 80.4424 12.82 80.2824 13.26C80.1224 13.7 80.0124 14.15 79.9524 14.61H86.7024Z" fill="black"/>
<path d="M98.2611 22.02C98.2611 22.72 98.0211 23.29 97.5411 23.73C97.0811 24.17 96.5211 24.39 95.8611 24.39C95.1811 24.39 94.6111 24.17 94.1511 23.73C93.6911 23.29 93.4611 22.72 93.4611 22.02C93.4611 21.32 93.6911 20.75 94.1511 20.31C94.6111 19.85 95.1811 19.62 95.8611 19.62C96.5211 19.62 97.0811 19.85 97.5411 20.31C98.0211 20.75 98.2611 21.32 98.2611 22.02ZM101.28 16.17C101.28 15.01 101.46 13.93 101.82 12.93C102.18 11.91 102.69 11.03 103.35 10.29C104.03 9.55 104.85 8.97 105.81 8.55C106.77 8.13 107.85 7.92 109.05 7.92C110.53 7.92 111.93 8.19 113.25 8.73L112.47 11.7C112.05 11.52 111.57 11.37 111.03 11.25C110.51 11.13 109.95 11.07 109.35 11.07C107.93 11.07 106.85 11.52 106.11 12.42C105.37 13.3 105 14.55 105 16.17C105 17.73 105.35 18.97 106.05 19.89C106.75 20.79 107.93 21.24 109.59 21.24C110.21 21.24 110.82 21.18 111.42 21.06C112.02 20.94 112.54 20.79 112.98 20.61L113.49 23.61C113.09 23.81 112.48 23.99 111.66 24.15C110.86 24.31 110.03 24.39 109.17 24.39C107.83 24.39 106.66 24.19 105.66 23.79C104.68 23.37 103.86 22.8 103.2 22.08C102.56 21.34 102.08 20.47 101.76 19.47C101.44 18.45 101.28 17.35 101.28 16.17ZM130.168 16.14C130.168 17.38 129.988 18.51 129.628 19.53C129.268 20.55 128.758 21.42 128.098 22.14C127.438 22.86 126.638 23.42 125.698 23.82C124.778 24.22 123.758 24.42 122.638 24.42C121.518 24.42 120.498 24.22 119.578 23.82C118.658 23.42 117.868 22.86 117.208 22.14C116.548 21.42 116.028 20.55 115.648 19.53C115.288 18.51 115.108 17.38 115.108 16.14C115.108 14.9 115.288 13.78 115.648 12.78C116.028 11.76 116.548 10.89 117.208 10.17C117.888 9.45 118.688 8.9 119.608 8.52C120.528 8.12 121.538 7.92 122.638 7.92C123.738 7.92 124.748 8.12 125.668 8.52C126.608 8.9 127.408 9.45 128.068 10.17C128.728 10.89 129.238 11.76 129.598 12.78C129.978 13.78 130.168 14.9 130.168 16.14ZM126.448 16.14C126.448 14.58 126.108 13.35 125.428 12.45C124.768 11.53 123.838 11.07 122.638 11.07C121.438 11.07 120.498 11.53 119.818 12.45C119.158 13.35 118.828 14.58 118.828 16.14C118.828 17.72 119.158 18.97 119.818 19.89C120.498 20.81 121.438 21.27 122.638 21.27C123.838 21.27 124.768 20.81 125.428 19.89C126.108 18.97 126.448 17.72 126.448 16.14ZM142.848 15.75C142.848 14.11 142.638 12.93 142.218 12.21C141.818 11.47 141.058 11.1 139.938 11.1C139.538 11.1 139.098 11.13 138.618 11.19C138.138 11.25 137.778 11.3 137.538 11.34V24H133.908V8.82C134.608 8.62 135.518 8.43 136.638 8.25C137.778 8.07 138.978 7.98 140.238 7.98C141.318 7.98 142.198 8.12 142.878 8.4C143.578 8.68 144.158 9.05 144.618 9.51C144.838 9.35 145.118 9.18 145.458 9C145.798 8.82 146.178 8.66 146.598 8.52C147.018 8.36 147.458 8.23 147.918 8.13C148.398 8.03 148.878 7.98 149.358 7.98C150.578 7.98 151.578 8.16 152.358 8.52C153.158 8.86 153.778 9.35 154.218 9.99C154.678 10.61 154.988 11.37 155.148 12.27C155.328 13.15 155.418 14.12 155.418 15.18V24H151.788V15.75C151.788 14.11 151.588 12.93 151.188 12.21C150.788 11.47 150.018 11.1 148.878 11.1C148.298 11.1 147.748 11.2 147.228 11.4C146.708 11.58 146.318 11.76 146.058 11.94C146.218 12.44 146.328 12.97 146.388 13.53C146.448 14.09 146.478 14.69 146.478 15.33V24H142.848V15.75Z" fill="#FF4B23"/>
</svg>
