<svg width="284" height="64" viewBox="0 0 284 64" fill="none" xmlns="http://www.w3.org/2000/svg">
<path d="M1.56411 24.5575C-0.76534 29.9684 1.73268 36.2432 7.14359 38.5727C12.5545 40.9021 18.8293 38.4041 21.1588 32.9932C23.4882 27.5823 20.9902 21.3075 15.5793 18.978C10.1684 16.6486 3.89356 19.1466 1.56411 24.5575ZM282.432 41.9529C283.51 41.7144 284.191 40.6468 283.953 39.5683C283.714 38.4897 282.647 37.8088 281.568 38.0473L282.432 41.9529ZM12.1672 30.6059C58.5627 10.1836 99.5628 2.31249 122.23 4.95567C127.88 5.61451 132.226 6.90979 135.205 8.69766C138.136 10.457 139.642 12.6172 139.972 15.1229C140.315 17.7201 139.453 21.107 136.717 25.3625C133.993 29.599 129.532 34.5055 123.042 40.0496L125.64 43.0909C132.296 37.4054 137.07 32.2099 140.081 27.5256C143.081 22.8604 144.453 18.5076 143.938 14.5999C143.41 10.6007 140.966 7.49065 137.263 5.26806C133.608 3.07399 128.637 1.67561 122.693 0.982594C98.9884 -1.7816 57.2092 6.40901 10.5557 26.9449L12.1672 30.6059ZM123.042 40.0496C119.685 42.9179 117.258 45.5179 115.758 47.8841C114.267 50.2361 113.54 52.6057 114.074 54.86C114.615 57.1457 116.317 58.7571 118.433 59.874C120.544 60.9882 123.303 61.7448 126.48 62.25C139.124 64.2606 160.754 62.6118 183.713 59.6127C206.764 56.6014 231.446 52.1855 250.352 48.5256C259.808 46.6951 267.825 45.0525 273.479 43.8674C276.307 43.2748 278.543 42.7965 280.074 42.4662C280.839 42.3011 281.428 42.1729 281.826 42.0859C282.025 42.0425 282.176 42.0093 282.277 41.9869C282.328 41.9758 282.367 41.9673 282.392 41.9616C282.405 41.9588 282.415 41.9566 282.422 41.9552C282.425 41.9544 282.428 41.9539 282.429 41.9535C282.431 41.9531 282.432 41.9529 282 40.0001C281.568 38.0473 281.568 38.0474 281.566 38.0477C281.565 38.0481 281.562 38.0486 281.559 38.0492C281.553 38.0506 281.544 38.0527 281.531 38.0554C281.506 38.061 281.468 38.0693 281.418 38.0803C281.318 38.1023 281.169 38.1351 280.972 38.1782C280.577 38.2644 279.992 38.3918 279.23 38.5562C277.707 38.885 275.478 39.3616 272.659 39.9524C267.021 41.1342 259.024 42.7726 249.592 44.5985C230.721 48.2515 206.13 52.6503 183.195 55.6464C160.166 58.6546 139.095 60.2058 127.108 58.2996C124.127 57.8257 121.857 57.1583 120.3 56.3365C118.748 55.5173 118.142 54.6804 117.966 53.9385C117.783 53.1651 117.931 51.9276 119.136 50.0258C120.333 48.138 122.426 45.8373 125.64 43.0909L123.042 40.0496Z" fill="#FF8D23"/>
</svg>
